<svg width="561.84" height="316.987" viewBox="0 0 421.38 237.74" class="displayed_equation" xmlns="http://www.w3.org/2000/svg">
  <path d="M 185.117188 1506.892187 L 4039.882813 1506.892187" transform="matrix(.1 0 0 -.1 0 237.74)" fill="none" stroke-width="7.97" stroke-linecap="round" stroke-linejoin="round" stroke="#000" stroke-miterlimit="10" />
  <path d="M 407.851563 87.050781 L 402.382813 84.984375 L 404.1875 87.050781 L 402.382813 89.113281" />
  <path d="M 4078.515625 1506.892187 L 4023.828125 1527.55625 L 4041.875 1506.892187 L 4023.828125 1486.267187 Z M 4078.515625 1506.892187" transform="matrix(.1 0 0 -.1 0 237.74)" fill="none" stroke-width="7.97" stroke-linecap="round" stroke="#000" stroke-miterlimit="10" />
  <path d="M 185.117188 1511.110937 L 185.117188 1567.790625" transform="matrix(.1 0 0 -.1 0 237.74)" fill="none" stroke-width="3.985" stroke-linecap="round" stroke-linejoin="round" stroke="#000" stroke-miterlimit="10" />
  <path d="M 20.921875 97.003906 C 20.921875 94.707031 19.917969 93.378906 18.476563 93.378906 C 16.859375 93.378906 16 94.851563 16 96.96875 C 16 98.945313 16.660156 100.664063 18.457031 100.664063 C 20.207031 100.664063 20.921875 98.910156 20.921875 97.003906 Z M 19.839844 97.070313 C 19.839844 99.210938 19.335938 100.261719 18.457031 100.261719 C 17.5625 100.261719 17.070313 99.191406 17.070313 97.027344 C 17.070313 94.816406 17.5625 93.757813 18.445313 93.757813 C 19.359375 93.757813 19.839844 94.804688 19.839844 97.070313" />
  <path d="M 835.898438 1511.110937 L 835.898438 1567.790625" transform="matrix(.1 0 0 -.1 0 237.74)" fill="none" stroke-width="3.985" stroke-linecap="round" stroke-linejoin="round" stroke="#000" stroke-miterlimit="10" />
  <path d="M83.175781 98.757813L82.851563 98.757813C82.597656 99.425781 82.453125 99.660156 81.859375 99.660156L80.308594 99.660156 79.527344 99.691406 79.527344 99.636719 81 98.242188C82.183594 97.046875 82.820313 96.277344 82.820313 95.285156 82.820313 94.113281 81.9375 93.355469 80.679688 93.355469 79.59375 93.355469 78.835938 93.980469 78.492188 95.0625L78.757813 95.175781C79.171875 94.335938 79.664063 94.082031 80.386719 94.082031 81.246094 94.082031 81.78125 94.617188 81.78125 95.453125 81.78125 96.625 81.222656 97.328125 80.121094 98.464844L78.421875 100.160156 78.421875 100.539063 82.820313 100.539063 83.175781 98.757813M88.820313 97.003906C88.820313 94.707031 87.816406 93.378906 86.378906 93.378906 84.761719 93.378906 83.902344 94.851563 83.902344 96.96875 83.902344 98.945313 84.558594 100.664063 86.355469 100.664063 88.109375 100.664063 88.820313 98.910156 88.820313 97.003906zM87.738281 97.070313C87.738281 99.210938 87.238281 100.261719 86.355469 100.261719 85.460938 100.261719 84.972656 99.191406 84.972656 97.027344 84.972656 94.816406 85.460938 93.757813 86.34375 93.757813 87.257813 93.757813 87.738281 94.804688 87.738281 97.070313" />
  <path d="M 1486.679688 1511.110937 L 1486.679688 1567.790625" transform="matrix(.1 0 0 -.1 0 237.74)" fill="none" stroke-width="3.985" stroke-linecap="round" stroke-linejoin="round" stroke="#000" stroke-miterlimit="10" />
  <path d="M148.464844 98.777344L148.464844 98.007813 147.328125 98.007813 147.328125 93.34375 146.648438 93.34375 143.246094 98.074219 143.246094 98.777344 146.335938 98.777344 146.335938 100.539063 147.328125 100.539063 147.328125 98.777344zM146.335938 98.007813L143.859375 98.007813 143.859375 97.964844 146.289063 94.558594 146.335938 94.558594 146.335938 98.007813M153.921875 97.003906C153.921875 94.707031 152.917969 93.378906 151.476563 93.378906 149.859375 93.378906 149.003906 94.851563 149.003906 96.96875 149.003906 98.945313 149.660156 100.664063 151.457031 100.664063 153.207031 100.664063 153.921875 98.910156 153.921875 97.003906zM152.839844 97.070313C152.839844 99.210938 152.339844 100.261719 151.457031 100.261719 150.5625 100.261719 150.070313 99.191406 150.070313 97.027344 150.070313 94.816406 150.5625 93.757813 151.445313 93.757813 152.359375 93.757813 152.839844 94.804688 152.839844 97.070313" />
  <path d="M 2137.460938 1511.110937 L 2137.460938 1567.790625" transform="matrix(.1 0 0 -.1 0 237.74)" fill="none" stroke-width="3.985" stroke-linecap="round" stroke-linejoin="round" stroke="#000" stroke-miterlimit="10" />
  <path d="M212.828125 93.335938C210.429688 93.433594 208.703125 94.984375 208.703125 97.671875 208.703125 99.3125 209.425781 100.675781 211.089844 100.675781 212.496094 100.675781 213.296875 99.792969 213.296875 98.277344 213.296875 96.8125 212.507813 95.933594 211.289063 95.933594 210.710938 95.933594 210.296875 96.175781 209.839844 96.625L209.761719 96.613281C210.039063 94.984375 211.289063 93.890625 212.851563 93.65625zM212.328125 98.363281C212.328125 99.78125 211.882813 100.285156 211.132813 100.285156 210.164063 100.285156 209.707031 99.289063 209.707031 97.90625 209.707031 96.9375 210.308594 96.578125 210.957031 96.578125 211.882813 96.578125 212.328125 97.359375 212.328125 98.363281M218.921875 97.003906C218.921875 94.707031 217.917969 93.378906 216.476563 93.378906 214.859375 93.378906 214.003906 94.851563 214.003906 96.96875 214.003906 98.945313 214.660156 100.664063 216.457031 100.664063 218.207031 100.664063 218.921875 98.910156 218.921875 97.003906zM217.839844 97.070313C217.839844 99.210938 217.339844 100.261719 216.457031 100.261719 215.5625 100.261719 215.070313 99.191406 215.070313 97.027344 215.070313 94.816406 215.5625 93.757813 216.445313 93.757813 217.359375 93.757813 217.839844 94.804688 217.839844 97.070313" />
  <path d="M 2788.28125 1511.110937 L 2788.28125 1567.790625" transform="matrix(.1 0 0 -.1 0 237.74)" fill="none" stroke-width="3.985" stroke-linecap="round" stroke-linejoin="round" stroke="#000" stroke-miterlimit="10" />
  <path d="M278.296875 98.867188C278.296875 97.972656 277.898438 97.4375 276.589844 96.644531L276.589844 96.613281C277.628906 96.046875 278.03125 95.675781 278.03125 94.863281 278.03125 93.980469 277.183594 93.320313 276.078125 93.320313 274.851563 93.320313 273.957031 93.957031 273.957031 94.972656 273.957031 95.730469 274.203125 96.1875 275.34375 96.980469L275.34375 97.015625C274.304688 97.707031 273.8125 98.0625 273.8125 98.957031 273.8125 100.09375 274.75 100.675781 276.042969 100.675781 277.371094 100.675781 278.296875 100.039063 278.296875 98.867188zM277.203125 94.839844C277.203125 95.550781 276.980469 95.988281 276.246094 96.433594 275.253906 95.832031 274.828125 95.429688 274.828125 94.773438 274.828125 94.09375 275.296875 93.691406 276.054688 93.691406 276.769531 93.691406 277.203125 94.101563 277.203125 94.839844zM275.675781 97.191406C277.027344 98.0625 277.359375 98.476563 277.359375 99.191406 277.359375 99.949219 276.78125 100.328125 276.089844 100.328125 275.242188 100.328125 274.683594 99.871094 274.683594 98.867188 274.683594 98.097656 275.039063 97.707031 275.675781 97.191406M284.023438 97.003906C284.023438 94.707031 283.015625 93.378906 281.578125 93.378906 279.960938 93.378906 279.101563 94.851563 279.101563 96.96875 279.101563 98.945313 279.757813 100.664063 281.554688 100.664063 283.308594 100.664063 284.023438 98.910156 284.023438 97.003906zM282.9375 97.070313C282.9375 99.210938 282.4375 100.261719 281.554688 100.261719 280.664063 100.261719 280.171875 99.191406 280.171875 97.027344 280.171875 94.816406 280.664063 93.757813 281.542969 93.757813 282.460938 93.757813 282.9375 94.804688 282.9375 97.070313" />
  <path d="M 3439.0625 1511.110937 L 3439.0625 1567.790625" transform="matrix(.1 0 0 -.1 0 237.74)" fill="none" stroke-width="3.985" stroke-linecap="round" stroke-linejoin="round" stroke="#000" stroke-miterlimit="10" />
  <path d="M340.351563 100.539063L340.351563 100.226563C339.328125 100.226563 338.914063 100.027344 338.914063 99.480469L338.914063 93.410156 338.589844 93.410156 336.425781 94.023438 336.425781 94.394531C336.773438 94.28125 337.339844 94.214844 337.5625 94.214844 337.84375 94.214844 337.929688 94.371094 337.929688 94.761719L337.929688 99.480469C337.929688 100.039063 337.539063 100.226563 336.492188 100.226563L336.492188 100.539063 340.351563 100.539063M346.320313 97.003906C346.320313 94.707031 345.316406 93.378906 343.878906 93.378906 342.261719 93.378906 341.402344 94.851563 341.402344 96.96875 341.402344 98.945313 342.058594 100.664063 343.855469 100.664063 345.609375 100.664063 346.320313 98.910156 346.320313 97.003906zM345.238281 97.070313C345.238281 99.210938 344.738281 100.261719 343.855469 100.261719 342.964844 100.261719 342.472656 99.191406 342.472656 97.027344 342.472656 94.816406 342.964844 93.757813 343.84375 93.757813 344.757813 93.757813 345.238281 94.804688 345.238281 97.070313M351.921875 97.003906C351.921875 94.707031 350.917969 93.378906 349.476563 93.378906 347.859375 93.378906 347.003906 94.851563 347.003906 96.96875 347.003906 98.945313 347.660156 100.664063 349.457031 100.664063 351.207031 100.664063 351.921875 98.910156 351.921875 97.003906zM350.839844 97.070313C350.839844 99.210938 350.339844 100.261719 349.457031 100.261719 348.5625 100.261719 348.070313 99.191406 348.070313 97.027344 348.070313 94.816406 348.5625 93.757813 349.445313 93.757813 350.359375 93.757813 350.839844 94.804688 350.839844 97.070313" />
  <path d="M861.40625 1506.892187C861.40625 1520.99375 850 1532.439062 835.898438 1532.439062 821.796875 1532.439062 810.390625 1520.99375 810.390625 1506.892187 810.390625 1492.829687 821.796875 1481.384375 835.898438 1481.384375 850 1481.384375 861.40625 1492.829687 861.40625 1506.892187zM780.039063 1506.892187C780.039063 1520.99375 768.632813 1532.439062 754.53125 1532.439062 740.46875 1532.439062 729.023438 1520.99375 729.023438 1506.892187 729.023438 1492.829687 740.46875 1481.384375 754.53125 1481.384375 768.632813 1481.384375 780.039063 1492.829687 780.039063 1506.892187zM633.632813 1506.892187C633.632813 1520.99375 622.1875 1532.439062 608.125 1532.439062 594.023438 1532.439062 582.617188 1520.99375 582.617188 1506.892187 582.617188 1492.829687 594.023438 1481.384375 608.125 1481.384375 622.1875 1481.384375 633.632813 1492.829687 633.632813 1506.892187zM1089.179688 1506.892187C1089.179688 1520.99375 1077.773438 1532.439062 1063.671875 1532.439062 1049.609375 1532.439062 1038.164063 1520.99375 1038.164063 1506.892187 1038.164063 1492.829687 1049.609375 1481.384375 1063.671875 1481.384375 1077.773438 1481.384375 1089.179688 1492.829687 1089.179688 1506.892187zM1219.335938 1506.892187C1219.335938 1520.99375 1207.929688 1532.439062 1193.828125 1532.439062 1179.765625 1532.439062 1168.320313 1520.99375 1168.320313 1506.892187 1168.320313 1492.829687 1179.765625 1481.384375 1193.828125 1481.384375 1207.929688 1481.384375 1219.335938 1492.829687 1219.335938 1506.892187zM1382.03125 1506.892187C1382.03125 1520.99375 1370.625 1532.439062 1356.523438 1532.439062 1342.460938 1532.439062 1331.015625 1520.99375 1331.015625 1506.892187 1331.015625 1492.829687 1342.460938 1481.384375 1356.523438 1481.384375 1370.625 1481.384375 1382.03125 1492.829687 1382.03125 1506.892187zM1382.03125 1506.892187" transform="matrix(.1 0 0 -.1 0 237.74)" fill="#ec6258" stroke-width="7.97" stroke-linecap="round" stroke-linejoin="round" stroke="#55a4e0" stroke-miterlimit="10" />
  <path d="M1424.335938 1506.892187C1424.335938 1520.99375 1412.929688 1532.439062 1398.828125 1532.439062 1384.765625 1532.439062 1373.320313 1520.99375 1373.320313 1506.892187 1373.320313 1492.829687 1384.765625 1481.384375 1398.828125 1481.384375 1412.929688 1481.384375 1424.335938 1492.829687 1424.335938 1506.892187zM1805.078125 1506.892187C1805.078125 1520.99375 1793.632813 1532.439062 1779.53125 1532.439062 1765.46875 1532.439062 1754.023438 1520.99375 1754.023438 1506.892187 1754.023438 1492.829687 1765.46875 1481.384375 1779.53125 1481.384375 1793.632813 1481.384375 1805.078125 1492.829687 1805.078125 1506.892187zM1886.40625 1506.892187C1886.40625 1520.99375 1875 1532.439062 1860.898438 1532.439062 1846.796875 1532.439062 1835.390625 1520.99375 1835.390625 1506.892187 1835.390625 1492.829687 1846.796875 1481.384375 1860.898438 1481.384375 1875 1481.384375 1886.40625 1492.829687 1886.40625 1506.892187zM2520.9375 1506.892187C2520.9375 1520.99375 2509.53125 1532.439062 2495.429688 1532.439062 2481.328125 1532.439062 2469.921875 1520.99375 2469.921875 1506.892187 2469.921875 1492.829687 2481.328125 1481.384375 2495.429688 1481.384375 2509.53125 1481.384375 2520.9375 1492.829687 2520.9375 1506.892187zM2651.09375 1506.892187C2651.09375 1520.99375 2639.6875 1532.439062 2625.585938 1532.439062 2611.484375 1532.439062 2600.078125 1520.99375 2600.078125 1506.892187 2600.078125 1492.829687 2611.484375 1481.384375 2625.585938 1481.384375 2639.6875 1481.384375 2651.09375 1492.829687 2651.09375 1506.892187zM2911.40625 1506.892187C2911.40625 1520.99375 2900 1532.439062 2885.898438 1532.439062 2871.835938 1532.439062 2860.390625 1520.99375 2860.390625 1506.892187 2860.390625 1492.829687 2871.835938 1481.384375 2885.898438 1481.384375 2900 1481.384375 2911.40625 1492.829687 2911.40625 1506.892187zM2911.40625 1506.892187" transform="matrix(.1 0 0 -.1 0 237.74)" fill="#ec6258" stroke-width="7.97" stroke-linecap="round" stroke-linejoin="round" stroke="#55a4e0" stroke-miterlimit="10" />
  <path d="M2943.945313 1506.892187C2943.945313 1520.99375 2932.539063 1532.439062 2918.4375 1532.439062 2904.375 1532.439062 2892.929688 1520.99375 2892.929688 1506.892187 2892.929688 1492.829687 2904.375 1481.384375 2918.4375 1481.384375 2932.539063 1481.384375 2943.945313 1492.829687 2943.945313 1506.892187zM3236.835938 1506.892187C3236.835938 1520.99375 3225.390625 1532.439062 3211.289063 1532.439062 3197.226563 1532.439062 3185.78125 1520.99375 3185.78125 1506.892187 3185.78125 1492.829687 3197.226563 1481.384375 3211.289063 1481.384375 3225.390625 1481.384375 3236.835938 1492.829687 3236.835938 1506.892187zM3366.953125 1506.892187C3366.953125 1520.99375 3355.546875 1532.439062 3341.445313 1532.439062 3327.382813 1532.439062 3315.9375 1520.99375 3315.9375 1506.892187 3315.9375 1492.829687 3327.382813 1481.384375 3341.445313 1481.384375 3355.546875 1481.384375 3366.953125 1492.829687 3366.953125 1506.892187zM3366.953125 1506.892187" transform="matrix(.1 0 0 -.1 0 237.74)" fill="#ec6258" stroke-width="7.97" stroke-linecap="round" stroke-linejoin="round" stroke="#55a4e0" stroke-miterlimit="10" />
  <path d="M 3399.53125 1506.892187 C 3399.53125 1520.99375 3388.085938 1532.439062 3373.984375 1532.439062 C 3359.921875 1532.439062 3348.515625 1520.99375 3348.515625 1506.892187 C 3348.515625 1492.829687 3359.921875 1481.384375 3373.984375 1481.384375 C 3388.085938 1481.384375 3399.53125 1492.829687 3399.53125 1506.892187 Z M 3399.53125 1506.892187" transform="matrix(.1 0 0 -.1 0 237.74)" fill="#ec6258" stroke-width="7.97" stroke-linecap="round" stroke-linejoin="round" stroke="#55a4e0" stroke-miterlimit="10" />
  <path d="M 1844.648438 1638.259375 L 1844.648438 2076.345312" transform="matrix(.1 0 0 -.1 0 237.74)" fill="none" stroke-width="7.97" stroke-linecap="round" stroke-linejoin="round" stroke="#55a4e0" stroke-dasharray="29.8883,29.8883" stroke-miterlimit="10" />
  <path d="M 184.464844 77.777344 L 186.527344 72.308594 L 184.464844 74.113281 L 182.398438 72.308594" fill="#55a4e0" />
  <path d="M 1844.648438 1599.626562 L 1865.273438 1654.314062 L 1844.648438 1636.267187 L 1823.984375 1654.314062 Z M 1844.648438 1599.626562" transform="matrix(.1 0 0 -.1 0 237.74)" fill="none" stroke-width="7.97" stroke-linecap="round" stroke="#55a4e0" stroke-miterlimit="10" />
  <path d="M157.589844 16.210938L157.589844 16.546875C158.425781 16.546875 158.683594 16.667969 158.683594 17.480469L158.683594 22.15625C158.683594 23.058594 158.570313 23.207031 157.589844 23.207031L157.589844 23.539063 160.78125 23.539063C163.191406 23.539063 164.785156 22.402344 164.785156 19.835938 164.785156 17.113281 162.980469 16.210938 160.65625 16.210938zM159.710938 16.691406C159.921875 16.667969 160.078125 16.667969 160.257813 16.667969 162.566406 16.667969 163.617188 17.816406 163.617188 19.9375 163.617188 22.445313 162.398438 23.117188 160.367188 23.117188 160.144531 23.117188 159.933594 23.105469 159.710938 23.082031L159.710938 16.691406M168.835938 22.847656C168.902344 23.339844 169.015625 23.597656 169.507813 23.597656 170.074219 23.597656 170.34375 23.363281 170.710938 22.824219L170.542969 22.648438C170.386719 22.816406 170.230469 22.925781 170.019531 22.925781 169.785156 22.925781 169.683594 22.835938 169.683594 22.378906L169.683594 19.847656C169.683594 18.6875 169.226563 18.128906 168.011719 18.128906 166.796875 18.128906 166.046875 18.730469 166.046875 19.355469 166.046875 19.722656 166.292969 19.890625 166.515625 19.890625 166.828125 19.890625 167.007813 19.722656 167.007813 19.378906 167.007813 18.710938 167.117188 18.472656 167.753906 18.472656 168.421875 18.472656 168.757813 18.84375 168.757813 19.8125L168.757813 20.304688C167.796875 20.605469 165.824219 20.894531 165.824219 22.367188 165.824219 23.082031 166.292969 23.617188 167.152344 23.617188 167.867188 23.617188 168.265625 23.304688 168.792969 22.847656zM168.757813 22.511719C168.378906 22.824219 167.976563 23.003906 167.609375 23.003906 167.128906 23.003906 166.804688 22.660156 166.804688 22.101563 166.804688 21.230469 167.742188 20.929688 168.757813 20.671875L168.757813 22.511719M174.070313 22.535156C173.789063 22.847656 173.644531 22.992188 173.289063 22.992188 172.851563 22.992188 172.753906 22.726563 172.753906 21.933594L172.753906 18.730469 174.011719 18.730469 174.011719 18.261719 172.753906 18.261719 172.765625 16.734375 172.472656 16.734375C172.070313 17.683594 171.738281 18.152344 171.214844 18.472656L171.214844 18.730469 171.828125 18.730469 171.828125 22.246094C171.828125 23.25 172.148438 23.652344 172.898438 23.652344 173.609375 23.652344 173.84375 23.316406 174.28125 22.714844L174.070313 22.535156M177.734375 22.847656C177.804688 23.339844 177.914063 23.597656 178.40625 23.597656 178.976563 23.597656 179.242188 23.363281 179.609375 22.824219L179.445313 22.648438C179.289063 22.816406 179.132813 22.925781 178.917969 22.925781 178.683594 22.925781 178.585938 22.835938 178.585938 22.378906L178.585938 19.847656C178.585938 18.6875 178.128906 18.128906 176.910156 18.128906 175.695313 18.128906 174.945313 18.730469 174.945313 19.355469 174.945313 19.722656 175.191406 19.890625 175.414063 19.890625 175.726563 19.890625 175.90625 19.722656 175.90625 19.378906 175.90625 18.710938 176.019531 18.472656 176.65625 18.472656 177.324219 18.472656 177.65625 18.84375 177.65625 19.8125L177.65625 20.304688C176.699219 20.605469 174.722656 20.894531 174.722656 22.367188 174.722656 23.082031 175.191406 23.617188 176.050781 23.617188 176.765625 23.617188 177.167969 23.304688 177.691406 22.847656zM177.65625 22.511719C177.277344 22.824219 176.878906 23.003906 176.507813 23.003906 176.03125 23.003906 175.707031 22.660156 175.707031 22.101563 175.707031 21.230469 176.640625 20.929688 177.65625 20.671875L177.65625 22.511719M184.265625 18.160156L183.984375 18.160156 182.578125 18.472656 182.578125 18.796875C182.578125 18.796875 182.789063 18.777344 182.9375 18.777344 183.304688 18.777344 183.359375 18.921875 183.359375 19.34375L183.359375 24.867188C183.359375 25.492188 183.246094 25.683594 182.546875 25.683594L182.546875 25.996094 185.367188 25.996094 185.367188 25.671875C184.496094 25.671875 184.285156 25.527344 184.285156 24.800781L184.285156 23.339844 184.328125 23.339844C184.65625 23.5625 185.03125 23.652344 185.457031 23.652344 186.796875 23.652344 187.898438 22.523438 187.898438 20.628906 187.898438 19.167969 187.132813 18.128906 186.027344 18.128906 185.367188 18.128906 184.832031 18.472656 184.296875 19.097656L184.265625 19.097656zM184.285156 19.566406C184.496094 19.289063 184.976563 18.886719 185.570313 18.886719 186.394531 18.886719 186.886719 19.535156 186.886719 20.941406 186.886719 22.492188 186.292969 23.21875 185.511719 23.21875 184.886719 23.21875 184.496094 22.714844 184.285156 22.480469L184.285156 19.566406M191.179688 18.128906C189.671875 18.128906 188.679688 19.222656 188.679688 20.839844 188.679688 22.648438 189.617188 23.652344 191.179688 23.652344 192.628906 23.652344 193.65625 22.671875 193.65625 20.796875 193.65625 19.144531 192.707031 18.128906 191.179688 18.128906zM191.132813 18.550781C192.128906 18.550781 192.628906 19.480469 192.628906 20.851563 192.628906 22.671875 192.136719 23.207031 191.222656 23.207031 190.265625 23.21875 189.71875 22.46875 189.71875 20.695313 189.71875 19.265625 190.285156 18.550781 191.132813 18.550781M195.71875 15.808594C195.328125 15.808594 195.082031 16.097656 195.082031 16.433594 195.082031 16.777344 195.339844 17.070313 195.71875 17.070313 196.109375 17.070313 196.351563 16.777344 196.351563 16.433594 196.351563 16.097656 196.109375 15.808594 195.71875 15.808594zM196.96875 23.226563C196.21875 23.226563 196.164063 23.058594 196.164063 22.414063L196.164063 18.160156 195.871094 18.160156 194.46875 18.472656 194.46875 18.796875C194.46875 18.796875 194.589844 18.777344 194.746094 18.777344 195.070313 18.777344 195.238281 18.820313 195.238281 19.300781L195.238281 22.414063C195.238281 23.050781 195.203125 23.226563 194.457031 23.226563L194.457031 23.539063 196.96875 23.539063 196.96875 23.226563M202.664063 20.113281C202.664063 18.832031 202.1875 18.128906 201.171875 18.128906 200.46875 18.128906 199.976563 18.53125 199.375 19.066406L199.328125 19.066406 199.34375 18.160156 199.085938 18.160156 197.667969 18.488281 197.667969 18.808594C197.667969 18.808594 197.78125 18.785156 197.96875 18.785156 198.269531 18.785156 198.4375 18.875 198.4375 19.277344L198.4375 22.414063C198.4375 23.039063 198.40625 23.226563 197.65625 23.226563L197.65625 23.539063 200.214844 23.539063 200.214844 23.226563C199.40625 23.226563 199.363281 23.039063 199.363281 22.414063L199.363281 19.546875C199.699219 19.246094 200.109375 18.84375 200.714844 18.84375 201.214844 18.84375 201.742188 19.054688 201.742188 20.394531L201.742188 22.414063C201.742188 23.039063 201.707031 23.226563 200.914063 23.226563L200.914063 23.539063 203.492188 23.539063 203.492188 23.226563C202.742188 23.226563 202.664063 23.039063 202.664063 22.414063L202.664063 20.113281M206.96875 22.535156C206.691406 22.847656 206.546875 22.992188 206.1875 22.992188 205.753906 22.992188 205.652344 22.726563 205.652344 21.933594L205.652344 18.730469 206.914063 18.730469 206.914063 18.261719 205.652344 18.261719 205.664063 16.734375 205.371094 16.734375C204.972656 17.683594 204.636719 18.152344 204.113281 18.472656L204.113281 18.730469 204.726563 18.730469 204.726563 22.246094C204.726563 23.25 205.050781 23.652344 205.796875 23.652344 206.511719 23.652344 206.746094 23.316406 207.179688 22.714844L206.96875 22.535156M207.734375 21.710938L207.769531 23.628906 208.003906 23.628906 208.238281 23.371094 208.257813 23.371094C208.550781 23.496094 208.882813 23.664063 209.53125 23.664063 210.535156 23.664063 211.40625 23.261719 211.40625 22.210938 211.40625 21.386719 210.859375 20.972656 209.84375 20.4375 208.90625 19.960938 208.539063 19.679688 208.539063 19.246094 208.539063 18.742188 208.929688 18.507813 209.441406 18.507813 210.121094 18.507813 210.535156 18.832031 210.78125 19.890625L211.082031 19.890625 211.046875 18.183594 210.824219 18.183594 210.636719 18.421875 210.625 18.421875C210.34375 18.285156 210.011719 18.128906 209.453125 18.128906 208.492188 18.128906 207.746094 18.621094 207.746094 19.535156 207.746094 20.359375 208.203125 20.75 209.21875 21.261719 210.257813 21.777344 210.46875 21.988281 210.46875 22.511719 210.46875 23.039063 210.066406 23.25 209.507813 23.25 208.683594 23.25 208.257813 22.859375 208.023438 21.710938L207.734375 21.710938" />
  <path d="M 1407.148438 1634.978125 L 1584.296875 2092.634375" transform="matrix(.1 0 0 -.1 0 237.74)" fill="none" stroke-width="7.97" stroke-linecap="round" stroke-linejoin="round" stroke="#55a4e0" stroke-dasharray="29.8883,29.8883" stroke-miterlimit="10" />
  <path d="M 139.316406 77.851563 L 143.226563 73.488281 L 140.644531 74.429688 L 139.367188 71.992188" fill="#55a4e0" />
  <path d="M 1393.164063 1598.884375 L 1432.265625 1642.517187 L 1406.445313 1633.103125 L 1393.671875 1657.478125 Z M 1393.164063 1598.884375" transform="matrix(.1 0 0 -.1 0 237.74)" fill="none" stroke-width="7.989" stroke-linecap="round" stroke="#55a4e0" stroke-miterlimit="10" />
  <path d="M 2433.828125 1629.196875 L 2104.960938 2092.634375" transform="matrix(.1 0 0 -.1 0 237.74)" fill="none" stroke-width="7.97" stroke-linecap="round" stroke-linejoin="round" stroke="#55a4e0" stroke-dasharray="29.8883,29.8883" stroke-miterlimit="10" />
  <path d="M 245.628906 77.984375 L 244.140625 72.304688 L 243.5 74.984375 L 240.757813 74.703125" fill="#55a4e0" />
  <path d="M 2456.289063 1597.55625 L 2441.40625 1654.353125 L 2435 1627.55625 L 2407.578125 1630.36875 Z M 2456.289063 1597.55625" transform="matrix(.1 0 0 -.1 0 237.74)" fill="none" stroke-width="8.007" stroke-linecap="round" stroke="#55a4e0" stroke-miterlimit="10" />
  <path d="M 1812.109375 1434.392187 L 1812.109375 1181.501562" transform="matrix(.1 0 0 -.1 0 237.74)" fill="none" stroke-width="14.944" stroke-linecap="round" stroke-linejoin="round" stroke="#55a4e0" stroke-miterlimit="10" />
  <path d="M 181.210938 89.175781 L 178.515625 96.292969 L 181.210938 93.929688 L 183.902344 96.292969" fill="#55a4e0" />
  <path d="M 1812.109375 1485.642187 L 1785.15625 1414.470312 L 1812.109375 1438.103125 L 1839.023438 1414.470312 Z M 1812.109375 1485.642187" transform="matrix(.1 0 0 -.1 0 237.74)" fill="none" stroke-width="14.944" stroke-linecap="round" stroke="#55a4e0" stroke-miterlimit="10" />
  <path d="M 1405.351563 693.415625 L 2218.828125 693.415625 L 2218.828125 1181.501562 L 1405.351563 1181.501562 Z M 1405.351563 693.415625" transform="matrix(.1 0 0 -.1 0 237.74)" fill="none" stroke-width="7.97" stroke-linecap="round" stroke-linejoin="round" stroke="#55a4e0" stroke-miterlimit="10" />
  <path d="M172.582031 133.738281L172.582031 133.40625C171.78125 133.40625 171.601563 133.226563 171.601563 132.410156L171.601563 127.761719C171.601563 126.933594 171.78125 126.746094 172.570313 126.746094L172.570313 126.410156 170.453125 126.410156 168.109375 132.019531 168.0625 132.019531 165.710938 126.410156 163.433594 126.410156 163.433594 126.746094C164.316406 126.746094 164.472656 126.933594 164.472656 127.769531L164.472656 132.113281C164.472656 133.261719 164.316406 133.40625 163.414063 133.40625L163.414063 133.738281 166.035156 133.738281 166.035156 133.40625C165.1875 133.40625 165.019531 133.261719 165.019531 132.113281L165.019531 127.613281 165.0625 127.613281 167.695313 133.738281 167.964844 133.738281 170.5625 127.605469 170.609375 127.605469 170.609375 132.410156C170.609375 133.226563 170.476563 133.40625 169.617188 133.40625L169.617188 133.738281 172.582031 133.738281M177.730469 132.144531C177.371094 132.613281 177.027344 133.015625 176.121094 133.015625 175.230469 133.015625 174.382813 132.3125 174.382813 130.773438L177.90625 130.773438C177.851563 129.210938 177.050781 128.328125 175.832031 128.328125 174.527344 128.328125 173.480469 129.222656 173.480469 131.085938 173.480469 132.882813 174.515625 133.851563 175.855469 133.851563 177.003906 133.851563 177.539063 133.148438 177.941406 132.300781zM174.371094 130.359375C174.460938 129.324219 174.90625 128.777344 175.664063 128.777344 176.457031 128.777344 176.828125 129.535156 176.859375 130.359375L174.371094 130.359375M184.035156 133.539063L184.035156 133.238281 183.800781 133.238281C183.386719 133.238281 183.242188 133.125 183.242188 132.546875L183.242188 125.863281 182.941406 125.863281 181.535156 126.253906 181.535156 126.566406C181.535156 126.566406 181.726563 126.546875 181.824219 126.546875 182.261719 126.546875 182.316406 126.644531 182.316406 127.136719L182.316406 128.597656C181.96875 128.40625 181.601563 128.328125 181.234375 128.328125 179.828125 128.328125 178.667969 129.457031 178.667969 131.296875 178.667969 132.722656 179.316406 133.828125 180.578125 133.828125 181.3125 133.828125 181.882813 133.40625 182.304688 133.027344L182.351563 133.027344 182.351563 133.796875 182.605469 133.796875zM182.316406 132.613281C181.925781 132.882813 181.625 133.027344 181.101563 133.027344 180.152344 133.027344 179.640625 132.402344 179.640625 130.863281 179.640625 129.457031 180.273438 128.777344 181.214844 128.777344 181.902344 128.777344 182.226563 129.210938 182.316406 129.667969L182.316406 132.613281M185.917969 126.007813C185.527344 126.007813 185.28125 126.300781 185.28125 126.632813 185.28125 126.980469 185.539063 127.269531 185.917969 127.269531 186.308594 127.269531 186.554688 126.980469 186.554688 126.632813 186.554688 126.300781 186.308594 126.007813 185.917969 126.007813zM187.167969 133.425781C186.421875 133.425781 186.363281 133.261719 186.363281 132.613281L186.363281 128.363281 186.074219 128.363281 184.667969 128.675781 184.667969 128.996094C184.667969 128.996094 184.789063 128.976563 184.945313 128.976563 185.269531 128.976563 185.4375 129.019531 185.4375 129.5L185.4375 132.613281C185.4375 133.25 185.40625 133.425781 184.65625 133.425781L184.65625 133.738281 187.167969 133.738281 187.167969 133.425781M190.9375 133.046875C191.003906 133.539063 191.113281 133.796875 191.605469 133.796875 192.175781 133.796875 192.441406 133.5625 192.8125 133.027344L192.644531 132.847656C192.488281 133.015625 192.332031 133.125 192.117188 133.125 191.882813 133.125 191.785156 133.035156 191.785156 132.578125L191.785156 130.046875C191.785156 128.886719 191.328125 128.328125 190.109375 128.328125 188.894531 128.328125 188.148438 128.933594 188.148438 129.554688 188.148438 129.925781 188.390625 130.09375 188.617188 130.09375 188.929688 130.09375 189.105469 129.925781 189.105469 129.578125 189.105469 128.910156 189.21875 128.675781 189.855469 128.675781 190.523438 128.675781 190.859375 129.042969 190.859375 130.011719L190.859375 130.503906C189.898438 130.804688 187.921875 131.097656 187.921875 132.566406 187.921875 133.28125 188.390625 133.816406 189.253906 133.816406 189.964844 133.816406 190.367188 133.507813 190.890625 133.046875zM190.859375 132.714844C190.476563 133.027344 190.078125 133.203125 189.710938 133.203125 189.230469 133.203125 188.90625 132.859375 188.90625 132.300781 188.90625 131.429688 189.84375 131.128906 190.859375 130.871094L190.859375 132.714844M198.265625 130.316406C198.265625 129.03125 197.785156 128.328125 196.773438 128.328125 196.070313 128.328125 195.578125 128.730469 194.976563 129.265625L194.929688 129.265625 194.941406 128.363281 194.683594 128.363281 193.269531 128.6875 193.269531 129.011719C193.269531 129.011719 193.378906 128.988281 193.570313 128.988281 193.871094 128.988281 194.039063 129.074219 194.039063 129.480469L194.039063 132.613281C194.039063 133.238281 194.003906 133.425781 193.257813 133.425781L193.257813 133.738281 195.8125 133.738281 195.8125 133.425781C195.007813 133.425781 194.964844 133.238281 194.964844 132.613281L194.964844 129.746094C195.296875 129.445313 195.710938 129.042969 196.3125 129.042969 196.816406 129.042969 197.339844 129.257813 197.339844 130.59375L197.339844 132.613281C197.339844 133.238281 197.304688 133.425781 196.515625 133.425781L196.515625 133.738281 199.09375 133.738281 199.09375 133.425781C198.34375 133.425781 198.265625 133.238281 198.265625 132.613281L198.265625 130.316406M157.578125 145.15625L157.253906 145.15625C156.996094 145.824219 156.851563 146.058594 156.257813 146.058594L154.710938 146.058594 153.929688 146.089844 153.929688 146.035156 155.402344 144.640625C156.585938 143.449219 157.21875 142.679688 157.21875 141.683594 157.21875 140.511719 156.339844 139.753906 155.078125 139.753906 153.996094 139.753906 153.238281 140.378906 152.890625 141.460938L153.160156 141.574219C153.570313 140.738281 154.0625 140.480469 154.789063 140.480469 155.648438 140.480469 156.179688 141.015625 156.179688 141.851563 156.179688 143.023438 155.621094 143.726563 154.519531 144.863281L152.824219 146.558594 152.824219 146.941406 157.21875 146.941406 157.578125 145.15625M163.265625 143.515625C163.265625 142.230469 162.785156 141.527344 161.773438 141.527344 161.070313 141.527344 160.578125 141.929688 159.976563 142.464844L159.929688 142.464844 159.941406 141.5625 159.683594 141.5625 158.269531 141.886719 158.269531 142.210938C158.269531 142.210938 158.378906 142.1875 158.570313 142.1875 158.871094 142.1875 159.039063 142.277344 159.039063 142.679688L159.039063 145.8125C159.039063 146.4375 159.003906 146.628906 158.257813 146.628906L158.257813 146.941406 160.8125 146.941406 160.8125 146.628906C160.007813 146.628906 159.964844 146.4375 159.964844 145.8125L159.964844 142.945313C160.296875 142.644531 160.710938 142.242188 161.3125 142.242188 161.816406 142.242188 162.339844 142.457031 162.339844 143.792969L162.339844 145.8125C162.339844 146.4375 162.304688 146.628906 161.515625 146.628906L161.515625 146.941406 164.09375 146.941406 164.09375 146.628906C163.34375 146.628906 163.265625 146.4375 163.265625 145.8125L163.265625 143.515625M170.132813 146.738281L170.132813 146.4375 169.898438 146.4375C169.488281 146.4375 169.34375 146.324219 169.34375 145.746094L169.34375 139.0625 169.039063 139.0625 167.636719 139.453125 167.636719 139.765625C167.636719 139.765625 167.824219 139.746094 167.925781 139.746094 168.359375 139.746094 168.414063 139.84375 168.414063 140.335938L168.414063 141.796875C168.070313 141.605469 167.703125 141.527344 167.335938 141.527344 165.929688 141.527344 164.769531 142.65625 164.769531 144.496094 164.769531 145.925781 165.414063 147.027344 166.675781 147.027344 167.414063 147.027344 167.980469 146.605469 168.40625 146.226563L168.449219 146.226563 168.449219 146.996094 168.707031 146.996094zM168.414063 145.8125C168.027344 146.082031 167.726563 146.226563 167.199219 146.226563 166.253906 146.226563 165.738281 145.601563 165.738281 144.0625 165.738281 142.65625 166.375 141.976563 167.3125 141.976563 168.003906 141.976563 168.328125 142.410156 168.414063 142.867188L168.414063 145.8125M178.757813 149.394531L178.757813 149.082031C178.132813 149.082031 178.019531 148.894531 178.019531 148.324219L178.019531 141.574219 177.609375 141.574219 177.304688 141.941406C176.839844 141.628906 176.457031 141.527344 175.988281 141.527344 174.570313 141.527344 173.46875 142.699219 173.46875 144.484375 173.46875 146.035156 174.203125 147.027344 175.363281 147.027344 176.089844 147.027344 176.570313 146.671875 177.0625 146.238281L177.09375 146.238281 177.09375 148.199219C177.09375 148.894531 176.960938 149.082031 176.054688 149.082031L176.054688 149.394531zM177.09375 145.792969C176.78125 146.046875 176.445313 146.214844 175.898438 146.214844 174.785156 146.214844 174.429688 145.277344 174.429688 144.0625 174.429688 142.667969 175.039063 141.976563 175.976563 141.976563 176.570313 141.976563 176.949219 142.300781 177.09375 142.855469L177.09375 145.792969M184.925781 146.4375L184.8125 146.4375C184.277344 146.4375 184.144531 146.359375 184.144531 145.699219L184.144531 141.605469 183.875 141.605469 182.3125 141.773438 182.3125 142.085938C183.027344 142.085938 183.21875 142.144531 183.21875 142.734375L183.21875 145.667969C182.773438 146.058594 182.414063 146.335938 181.84375 146.335938 181.265625 146.335938 180.839844 146.003906 180.839844 144.863281L180.839844 141.605469 180.59375 141.605469 179.15625 141.773438 179.15625 142.085938C179.757813 142.097656 179.914063 142.144531 179.914063 142.746094L179.914063 145.011719C179.914063 146.527344 180.449219 147.050781 181.378906 147.050781 182.089844 147.050781 182.617188 146.714844 183.207031 146.136719L183.261719 146.136719 183.261719 146.996094 183.507813 146.996094 184.925781 146.738281 184.925781 146.4375M188.734375 146.246094C188.804688 146.738281 188.914063 146.996094 189.40625 146.996094 189.976563 146.996094 190.242188 146.761719 190.609375 146.226563L190.445313 146.046875C190.289063 146.214844 190.132813 146.324219 189.917969 146.324219 189.683594 146.324219 189.585938 146.238281 189.585938 145.777344L189.585938 143.246094C189.585938 142.085938 189.128906 141.527344 187.910156 141.527344 186.695313 141.527344 185.945313 142.132813 185.945313 142.753906 185.945313 143.125 186.191406 143.292969 186.414063 143.292969 186.726563 143.292969 186.90625 143.125 186.90625 142.777344 186.90625 142.109375 187.019531 141.875 187.65625 141.875 188.324219 141.875 188.65625 142.242188 188.65625 143.214844L188.65625 143.703125C187.699219 144.003906 185.722656 144.296875 185.722656 145.769531 185.722656 146.480469 186.191406 147.019531 187.050781 147.019531 187.765625 147.019531 188.167969 146.707031 188.691406 146.246094zM188.65625 145.914063C188.277344 146.226563 187.878906 146.402344 187.507813 146.402344 187.03125 146.402344 186.707031 146.058594 186.707031 145.5 186.707031 144.628906 187.640625 144.328125 188.65625 144.074219L188.65625 145.914063M192.742188 141.5625L192.472656 141.5625 191.089844 141.898438 191.089844 142.210938C191.089844 142.210938 191.214844 142.1875 191.4375 142.1875 191.839844 142.1875 191.839844 142.386719 191.839844 142.789063L191.839844 145.855469C191.839844 146.480469 191.757813 146.617188 191.023438 146.617188L191.023438 146.941406 193.8125 146.941406 193.8125 146.617188C192.976563 146.617188 192.765625 146.503906 192.765625 145.800781L192.765625 143.257813C193.03125 142.8125 193.390625 142.34375 193.644531 142.34375 193.78125 142.34375 194.003906 142.722656 194.371094 142.722656 194.617188 142.722656 194.859375 142.542969 194.859375 142.121094 194.859375 141.742188 194.648438 141.496094 194.214844 141.496094 193.679688 141.496094 193.34375 141.886719 192.773438 142.710938L192.742188 142.710938 192.742188 141.5625M198.167969 145.933594C197.890625 146.246094 197.746094 146.394531 197.386719 146.394531 196.953125 146.394531 196.851563 146.125 196.851563 145.332031L196.851563 142.132813 198.113281 142.132813 198.113281 141.664063 196.851563 141.664063 196.863281 140.136719 196.574219 140.136719C196.171875 141.082031 195.839844 141.550781 195.3125 141.875L195.3125 142.132813 195.925781 142.132813 195.925781 145.644531C195.925781 146.648438 196.25 147.050781 196.996094 147.050781 197.710938 147.050781 197.945313 146.714844 198.382813 146.113281L198.167969 145.933594M200.117188 139.207031C199.726563 139.207031 199.480469 139.5 199.480469 139.832031 199.480469 140.179688 199.738281 140.46875 200.117188 140.46875 200.507813 140.46875 200.753906 140.179688 200.753906 139.832031 200.753906 139.5 200.507813 139.207031 200.117188 139.207031zM201.367188 146.628906C200.621094 146.628906 200.5625 146.460938 200.5625 145.8125L200.5625 141.5625 200.273438 141.5625 198.867188 141.875 198.867188 142.199219C198.867188 142.199219 198.992188 142.175781 199.148438 142.175781 199.46875 142.175781 199.636719 142.222656 199.636719 142.699219L199.636719 145.8125C199.636719 146.449219 199.605469 146.628906 198.855469 146.628906L198.855469 146.941406 201.367188 146.941406 201.367188 146.628906M204.601563 146.617188C203.796875 146.617188 203.742188 146.460938 203.742188 145.8125L203.742188 139.0625 203.464844 139.0625 201.992188 139.453125 201.992188 139.753906C201.992188 139.753906 202.15625 139.734375 202.347656 139.734375 202.628906 139.734375 202.816406 139.753906 202.816406 140.214844L202.816406 145.8125C202.816406 146.4375 202.769531 146.617188 202.035156 146.617188L202.035156 146.941406 204.601563 146.941406 204.601563 146.617188M209.429688 145.34375C209.074219 145.8125 208.726563 146.214844 207.824219 146.214844 206.929688 146.214844 206.082031 145.511719 206.082031 143.972656L209.609375 143.972656C209.554688 142.410156 208.75 141.527344 207.53125 141.527344 206.226563 141.527344 205.179688 142.421875 205.179688 144.285156 205.179688 146.082031 206.21875 147.050781 207.554688 147.050781 208.703125 147.050781 209.242188 146.347656 209.640625 145.5zM206.070313 143.558594C206.160156 142.523438 206.609375 141.976563 207.367188 141.976563 208.15625 141.976563 208.527344 142.734375 208.558594 143.558594L206.070313 143.558594M181.964844 156.359375C181.964844 154.171875 180.636719 152.675781 178.417969 152.675781 176.207031 152.675781 174.859375 154.203125 174.859375 156.46875 174.859375 158.746094 176.109375 160.128906 178.136719 160.261719L178.40625 160.71875C178.996094 161.734375 179.855469 162.070313 181.707031 162.070313L182.265625 162.070313 182.265625 161.703125C180.925781 161.703125 180.214844 161.253906 179.421875 160.140625L179.421875 160.117188C180.992188 159.738281 181.964844 158.300781 181.964844 156.359375zM180.792969 156.402344C180.792969 158.644531 180.011719 159.804688 178.429688 159.804688 176.820313 159.804688 176.03125 158.5 176.03125 156.402344 176.03125 154.359375 176.945313 153.144531 178.382813 153.144531 179.820313 153.144531 180.792969 154.394531 180.792969 156.402344M187.777344 158.355469L187.453125 158.355469C187.195313 159.023438 187.050781 159.257813 186.460938 159.257813L184.910156 159.257813 184.128906 159.292969 184.128906 159.238281 185.601563 157.839844C186.785156 156.648438 187.417969 155.878906 187.417969 154.886719 187.417969 153.714844 186.539063 152.957031 185.277344 152.957031 184.195313 152.957031 183.4375 153.582031 183.089844 154.660156L183.359375 154.773438C183.773438 153.9375 184.261719 153.679688 184.988281 153.679688 185.847656 153.679688 186.382813 154.214844 186.382813 155.050781 186.382813 156.222656 185.824219 156.925781 184.71875 158.066406L183.023438 159.761719 183.023438 160.140625 187.417969 160.140625 187.777344 158.355469" />
  <path d="M 1128.75 1434.392187 L 1128.75 612.048437" transform="matrix(.1 0 0 -.1 0 237.74)" fill="none" stroke-width="14.944" stroke-linecap="round" stroke-linejoin="round" stroke="#55a4e0" stroke-miterlimit="10" />
  <path d="M 112.875 89.175781 L 110.183594 96.292969 L 112.875 93.929688 L 115.566406 96.292969" fill="#55a4e0" />
  <path d="M 1128.75 1485.642187 L 1101.835938 1414.470312 L 1128.75 1438.103125 L 1155.664063 1414.470312 Z M 1128.75 1485.642187" transform="matrix(.1 0 0 -.1 0 237.74)" fill="none" stroke-width="14.944" stroke-linecap="round" stroke="#55a4e0" stroke-miterlimit="10" />
  <path d="M 721.992188 123.9625 L 1535.507813 123.9625 L 1535.507813 612.048437 L 721.992188 612.048437 Z M 721.992188 123.9625" transform="matrix(.1 0 0 -.1 0 237.74)" fill="none" stroke-width="7.97" stroke-linecap="round" stroke-linejoin="round" stroke="#55a4e0" stroke-miterlimit="10" />
  <path d="M95.351563 190.738281L95.351563 190.425781C94.328125 190.425781 93.914063 190.226563 93.914063 189.679688L93.914063 183.613281 93.589844 183.613281 91.425781 184.222656 91.425781 184.59375C91.773438 184.480469 92.339844 184.414063 92.5625 184.414063 92.84375 184.414063 92.929688 184.570313 92.929688 184.960938L92.929688 189.679688C92.929688 190.238281 92.539063 190.425781 91.492188 190.425781L91.492188 190.738281 95.351563 190.738281M96.535156 188.910156L96.570313 190.828125 96.804688 190.828125 97.039063 190.574219 97.058594 190.574219C97.351563 190.695313 97.683594 190.863281 98.332031 190.863281 99.335938 190.863281 100.207031 190.460938 100.207031 189.410156 100.207031 188.585938 99.660156 188.175781 98.644531 187.636719 97.707031 187.160156 97.339844 186.878906 97.339844 186.445313 97.339844 185.941406 97.726563 185.707031 98.242188 185.707031 98.921875 185.707031 99.335938 186.03125 99.582031 187.089844L99.882813 187.089844 99.847656 185.386719 99.625 185.386719 99.4375 185.621094 99.425781 185.621094C99.144531 185.484375 98.8125 185.328125 98.253906 185.328125 97.292969 185.328125 96.546875 185.820313 96.546875 186.734375 96.546875 187.558594 97.003906 187.949219 98.019531 188.464844 99.054688 188.976563 99.269531 189.191406 99.269531 189.714844 99.269531 190.238281 98.867188 190.449219 98.308594 190.449219 97.484375 190.449219 97.058594 190.058594 96.824219 188.910156L96.535156 188.910156M103.867188 189.734375C103.589844 190.046875 103.445313 190.191406 103.089844 190.191406 102.652344 190.191406 102.554688 189.925781 102.554688 189.132813L102.554688 185.933594 103.8125 185.933594 103.8125 185.464844 102.554688 185.464844 102.5625 183.933594 102.273438 183.933594C101.871094 184.882813 101.539063 185.351563 101.011719 185.675781L101.011719 185.933594 101.628906 185.933594 101.628906 189.445313C101.628906 190.449219 101.949219 190.851563 102.695313 190.851563 103.410156 190.851563 103.644531 190.515625 104.082031 189.914063L103.867188 189.734375M108.027344 182.832031L107.414063 182.832031 104.503906 191.730469 105.128906 191.730469 108.027344 182.832031M111.300781 190.417969C110.496094 190.417969 110.441406 190.261719 110.441406 189.613281L110.441406 182.863281 110.164063 182.863281 108.691406 183.253906 108.691406 183.554688C108.691406 183.554688 108.859375 183.535156 109.046875 183.535156 109.328125 183.535156 109.515625 183.554688 109.515625 184.011719L109.515625 189.613281C109.515625 190.238281 109.46875 190.417969 108.734375 190.417969L108.734375 190.738281 111.300781 190.738281 111.300781 190.417969M114.476563 185.328125C112.972656 185.328125 111.980469 186.421875 111.980469 188.039063 111.980469 189.847656 112.917969 190.851563 114.476563 190.851563 115.929688 190.851563 116.953125 189.871094 116.953125 187.996094 116.953125 186.34375 116.007813 185.328125 114.476563 185.328125zM114.433594 185.753906C115.425781 185.753906 115.929688 186.679688 115.929688 188.050781 115.929688 189.871094 115.4375 190.40625 114.523438 190.40625 113.5625 190.417969 113.015625 189.667969 113.015625 187.894531 113.015625 186.464844 113.585938 185.753906 114.433594 185.753906M125.902344 185.464844L123.96875 185.464844 123.96875 185.785156C124.382813 185.785156 124.59375 185.855469 124.59375 186.066406 124.59375 186.253906 124.539063 186.410156 124.527344 186.464844L123.648438 188.964844 123.425781 189.613281 123.359375 189.613281 123.15625 188.964844 122.253906 186.523438C122.195313 186.355469 122.152344 186.199219 122.152344 186.066406 122.152344 185.886719 122.285156 185.785156 122.710938 185.785156L122.710938 185.464844 120.378906 185.464844 120.378906 185.785156C120.871094 185.785156 121.039063 185.875 121.304688 186.601563L121.429688 186.933594 120.621094 188.964844 120.390625 189.613281 120.3125 189.613281 120.109375 188.964844 119.140625 186.5C119.074219 186.332031 119.015625 186.210938 119.015625 186.066406 119.015625 185.886719 119.164063 185.785156 119.609375 185.785156L119.609375 185.464844 117.210938 185.464844 117.210938 185.785156C117.703125 185.785156 117.867188 185.910156 118.160156 186.601563L119.832031 190.808594 120.34375 190.808594 121.648438 187.558594 121.695313 187.558594 122.878906 190.808594 123.414063 190.808594 125.074219 186.523438C125.296875 185.941406 125.464844 185.785156 125.902344 185.785156L125.902344 185.464844M130.328125 189.144531C129.972656 189.613281 129.628906 190.015625 128.722656 190.015625 127.832031 190.015625 126.984375 189.3125 126.984375 187.773438L130.507813 187.773438C130.453125 186.210938 129.648438 185.328125 128.433594 185.328125 127.128906 185.328125 126.078125 186.222656 126.078125 188.085938 126.078125 189.878906 127.117188 190.851563 128.457031 190.851563 129.605469 190.851563 130.140625 190.148438 130.542969 189.300781zM126.972656 187.359375C127.0625 186.324219 127.507813 185.777344 128.265625 185.777344 129.058594 185.777344 129.425781 186.535156 129.460938 187.359375L126.972656 187.359375M132.941406 185.363281L132.671875 185.363281 131.289063 185.699219 131.289063 186.011719C131.289063 186.011719 131.414063 185.988281 131.636719 185.988281 132.039063 185.988281 132.039063 186.1875 132.039063 186.589844L132.039063 189.65625C132.039063 190.28125 131.960938 190.417969 131.222656 190.417969L131.222656 190.738281 134.011719 190.738281 134.011719 190.417969C133.175781 190.417969 132.964844 190.304688 132.964844 189.601563L132.964844 187.058594C133.230469 186.613281 133.589844 186.144531 133.84375 186.144531 133.980469 186.144531 134.203125 186.523438 134.570313 186.523438 134.816406 186.523438 135.0625 186.34375 135.0625 185.921875 135.0625 185.542969 134.851563 185.296875 134.414063 185.296875 133.878906 185.296875 133.542969 185.6875 132.976563 186.511719L132.941406 186.511719 132.941406 185.363281M100.054688 206.394531L100.054688 206.082031C99.429688 206.082031 99.320313 205.894531 99.320313 205.324219L99.320313 198.574219 98.90625 198.574219 98.605469 198.941406C98.136719 198.628906 97.757813 198.527344 97.289063 198.527344 95.871094 198.527344 94.769531 199.699219 94.769531 201.484375 94.769531 203.035156 95.503906 204.027344 96.664063 204.027344 97.390625 204.027344 97.871094 203.671875 98.359375 203.238281L98.394531 203.238281 98.394531 205.199219C98.394531 205.894531 98.257813 206.082031 97.355469 206.082031L97.355469 206.394531zM98.394531 202.792969C98.082031 203.046875 97.746094 203.214844 97.199219 203.214844 96.085938 203.214844 95.726563 202.277344 95.726563 201.0625 95.726563 199.667969 96.339844 198.976563 97.277344 198.976563 97.871094 198.976563 98.25 199.300781 98.394531 199.855469L98.394531 202.792969M106.226563 203.4375L106.113281 203.4375C105.578125 203.4375 105.445313 203.359375 105.445313 202.699219L105.445313 198.605469 105.175781 198.605469 103.613281 198.773438 103.613281 199.085938C104.328125 199.085938 104.515625 199.144531 104.515625 199.734375L104.515625 202.667969C104.070313 203.058594 103.714844 203.335938 103.144531 203.335938 102.566406 203.335938 102.140625 203.003906 102.140625 201.863281L102.140625 198.605469 101.894531 198.605469 100.457031 198.773438 100.457031 199.085938C101.058594 199.097656 101.214844 199.144531 101.214844 199.746094L101.214844 202.011719C101.214844 203.527344 101.75 204.050781 102.675781 204.050781 103.390625 204.050781 103.914063 203.714844 104.507813 203.136719L104.5625 203.136719 104.5625 203.996094 104.808594 203.996094 106.226563 203.738281 106.226563 203.4375M110.035156 203.246094C110.101563 203.738281 110.214844 203.996094 110.707031 203.996094 111.273438 203.996094 111.542969 203.761719 111.910156 203.226563L111.742188 203.046875C111.589844 203.214844 111.429688 203.324219 111.21875 203.324219 110.984375 203.324219 110.882813 203.238281 110.882813 202.777344L110.882813 200.246094C110.882813 199.085938 110.425781 198.527344 109.210938 198.527344 107.996094 198.527344 107.246094 199.132813 107.246094 199.753906 107.246094 200.125 107.492188 200.292969 107.714844 200.292969 108.027344 200.292969 108.207031 200.125 108.207031 199.777344 108.207031 199.109375 108.320313 198.875 108.953125 198.875 109.621094 198.875 109.957031 199.242188 109.957031 200.214844L109.957031 200.703125C108.996094 201.003906 107.023438 201.296875 107.023438 202.769531 107.023438 203.480469 107.492188 204.019531 108.351563 204.019531 109.066406 204.019531 109.46875 203.707031 109.992188 203.246094zM109.957031 202.914063C109.578125 203.226563 109.175781 203.402344 108.808594 203.402344 108.328125 203.402344 108.007813 203.058594 108.007813 202.5 108.007813 201.628906 108.941406 201.328125 109.957031 201.074219L109.957031 202.914063M114.042969 198.5625L113.773438 198.5625 112.390625 198.898438 112.390625 199.210938C112.390625 199.210938 112.511719 199.1875 112.734375 199.1875 113.136719 199.1875 113.136719 199.386719 113.136719 199.789063L113.136719 202.855469C113.136719 203.480469 113.058594 203.617188 112.324219 203.617188L112.324219 203.941406 115.113281 203.941406 115.113281 203.617188C114.277344 203.617188 114.0625 203.503906 114.0625 202.800781L114.0625 200.257813C114.332031 199.8125 114.6875 199.34375 114.945313 199.34375 115.078125 199.34375 115.300781 199.722656 115.671875 199.722656 115.914063 199.722656 116.160156 199.542969 116.160156 199.121094 116.160156 198.742188 115.949219 198.496094 115.515625 198.496094 114.976563 198.496094 114.644531 198.886719 114.074219 199.710938L114.042969 199.710938 114.042969 198.5625M119.570313 202.933594C119.289063 203.246094 119.144531 203.394531 118.789063 203.394531 118.351563 203.394531 118.253906 203.125 118.253906 202.332031L118.253906 199.132813 119.511719 199.132813 119.511719 198.664063 118.253906 198.664063 118.265625 197.136719 117.972656 197.136719C117.570313 198.082031 117.238281 198.550781 116.714844 198.875L116.714844 199.132813 117.328125 199.132813 117.328125 202.644531C117.328125 203.648438 117.648438 204.050781 118.398438 204.050781 119.109375 204.050781 119.34375 203.714844 119.78125 203.113281L119.570313 202.933594M121.417969 196.207031C121.027344 196.207031 120.78125 196.5 120.78125 196.832031 120.78125 197.179688 121.039063 197.46875 121.417969 197.46875 121.808594 197.46875 122.054688 197.179688 122.054688 196.832031 122.054688 196.5 121.808594 196.207031 121.417969 196.207031zM122.667969 203.628906C121.921875 203.628906 121.863281 203.460938 121.863281 202.8125L121.863281 198.5625 121.574219 198.5625 120.167969 198.875 120.167969 199.199219C120.167969 199.199219 120.289063 199.175781 120.445313 199.175781 120.769531 199.175781 120.9375 199.222656 120.9375 199.699219L120.9375 202.8125C120.9375 203.449219 120.90625 203.628906 120.15625 203.628906L120.15625 203.941406 122.667969 203.941406 122.667969 203.628906M125.898438 203.617188C125.097656 203.617188 125.042969 203.460938 125.042969 202.8125L125.042969 196.0625 124.761719 196.0625 123.289063 196.453125 123.289063 196.753906C123.289063 196.753906 123.457031 196.734375 123.648438 196.734375 123.925781 196.734375 124.117188 196.753906 124.117188 197.214844L124.117188 202.8125C124.117188 203.4375 124.070313 203.617188 123.335938 203.617188L123.335938 203.941406 125.898438 203.941406 125.898438 203.617188M130.828125 202.34375C130.472656 202.8125 130.128906 203.214844 129.222656 203.214844 128.332031 203.214844 127.484375 202.511719 127.484375 200.972656L131.007813 200.972656C130.953125 199.410156 130.148438 198.527344 128.933594 198.527344 127.628906 198.527344 126.578125 199.421875 126.578125 201.285156 126.578125 203.082031 127.617188 204.050781 128.957031 204.050781 130.105469 204.050781 130.640625 203.347656 131.042969 202.5zM127.472656 200.558594C127.5625 199.523438 128.007813 198.976563 128.765625 198.976563 129.558594 198.976563 129.925781 199.734375 129.960938 200.558594L127.472656 200.558594M113.664063 213.359375C113.664063 211.171875 112.339844 209.675781 110.117188 209.675781 107.90625 209.675781 106.558594 211.203125 106.558594 213.46875 106.558594 215.746094 107.808594 217.128906 109.839844 217.261719L110.105469 217.71875C110.695313 218.734375 111.554688 219.070313 113.40625 219.070313L113.964844 219.070313 113.964844 218.703125C112.628906 218.703125 111.914063 218.253906 111.121094 217.140625L111.121094 217.117188C112.695313 216.738281 113.664063 215.300781 113.664063 213.359375zM112.492188 213.402344C112.492188 215.644531 111.714844 216.804688 110.128906 216.804688 108.523438 216.804688 107.730469 215.5 107.730469 213.402344 107.730469 211.359375 108.644531 210.144531 110.082031 210.144531 111.523438 210.144531 112.492188 211.394531 112.492188 213.402344M118.953125 217.140625L118.953125 216.828125C117.925781 216.828125 117.515625 216.628906 117.515625 216.082031L117.515625 210.011719 117.191406 210.011719 115.023438 210.625 115.023438 210.992188C115.371094 210.878906 115.941406 210.816406 116.164063 210.816406 116.441406 210.816406 116.53125 210.972656 116.53125 211.359375L116.53125 216.082031C116.53125 216.636719 116.140625 216.828125 115.09375 216.828125L115.09375 217.140625 118.953125 217.140625" />
  <path d="M 2902.1875 1434.392187 L 2902.1875 612.048437" transform="matrix(.1 0 0 -.1 0 237.74)" fill="none" stroke-width="14.944" stroke-linecap="round" stroke-linejoin="round" stroke="#55a4e0" stroke-miterlimit="10" />
  <path d="M 290.21875 89.175781 L 287.523438 96.292969 L 290.21875 93.929688 L 292.910156 96.292969" fill="#55a4e0" />
  <path d="M 2902.1875 1485.642187 L 2875.234375 1414.470312 L 2902.1875 1438.103125 L 2929.101563 1414.470312 Z M 2902.1875 1485.642187" transform="matrix(.1 0 0 -.1 0 237.74)" fill="none" stroke-width="14.944" stroke-linecap="round" stroke="#55a4e0" stroke-miterlimit="10" />
  <path d="M 2495.429688 123.9625 L 3308.945313 123.9625 L 3308.945313 612.048437 L 2495.429688 612.048437 Z M 2495.429688 123.9625" transform="matrix(.1 0 0 -.1 0 237.74)" fill="none" stroke-width="7.97" stroke-linecap="round" stroke-linejoin="round" stroke="#55a4e0" stroke-miterlimit="10" />
  <path d="M267.160156 185.183594C267.539063 184.59375 267.953125 184.28125 268.621094 184.28125 269.3125 184.28125 269.757813 184.660156 269.757813 185.316406 269.757813 186.222656 268.96875 186.835938 268.207031 186.835938L267.996094 186.835938 267.996094 187.257813 268.21875 187.257813C269.289063 187.257813 270.238281 187.917969 270.238281 188.910156 270.238281 190.003906 269.558594 190.328125 268.855469 190.328125 268.589844 190.328125 268.429688 190.28125 267.953125 190.035156 267.5625 189.835938 267.472656 189.78125 267.292969 189.78125 267.003906 189.78125 266.859375 190.035156 266.859375 190.269531 266.859375 190.5625 267.101563 190.886719 268.109375 190.886719 269.734375 190.886719 271.152344 190.105469 271.152344 188.574219 271.152344 187.582031 270.40625 186.992188 269.515625 186.710938L269.515625 186.679688C270.214844 186.230469 270.71875 185.820313 270.71875 185.050781 270.71875 184.203125 270.058594 183.554688 268.921875 183.554688 268.007813 183.554688 267.316406 184.066406 266.902344 185.039063L267.160156 185.183594M273.84375 185.363281L273.574219 185.363281 272.191406 185.699219 272.191406 186.011719C272.191406 186.011719 272.3125 185.988281 272.535156 185.988281 272.9375 185.988281 272.9375 186.1875 272.9375 186.589844L272.9375 189.65625C272.9375 190.28125 272.859375 190.417969 272.121094 190.417969L272.121094 190.738281 274.914063 190.738281 274.914063 190.417969C274.078125 190.417969 273.863281 190.304688 273.863281 189.601563L273.863281 187.058594C274.132813 186.613281 274.488281 186.144531 274.746094 186.144531 274.878906 186.144531 275.101563 186.523438 275.46875 186.523438 275.714844 186.523438 275.960938 186.34375 275.960938 185.921875 275.960938 185.542969 275.75 185.296875 275.3125 185.296875 274.777344 185.296875 274.445313 185.6875 273.875 186.511719L273.84375 186.511719 273.84375 185.363281M281.632813 190.539063L281.632813 190.238281 281.398438 190.238281C280.988281 190.238281 280.84375 190.125 280.84375 189.546875L280.84375 182.863281 280.539063 182.863281 279.136719 183.253906 279.136719 183.566406C279.136719 183.566406 279.324219 183.542969 279.425781 183.542969 279.859375 183.542969 279.914063 183.644531 279.914063 184.136719L279.914063 185.597656C279.570313 185.40625 279.203125 185.328125 278.835938 185.328125 277.429688 185.328125 276.269531 186.457031 276.269531 188.296875 276.269531 189.722656 276.914063 190.828125 278.175781 190.828125 278.914063 190.828125 279.480469 190.40625 279.90625 190.027344L279.949219 190.027344 279.949219 190.796875 280.207031 190.796875zM279.914063 189.613281C279.527344 189.878906 279.226563 190.027344 278.699219 190.027344 277.753906 190.027344 277.238281 189.402344 277.238281 187.863281 277.238281 186.457031 277.875 185.777344 278.8125 185.777344 279.503906 185.777344 279.828125 186.210938 279.914063 186.667969L279.914063 189.613281M285.925781 182.832031L285.3125 182.832031 282.402344 191.730469 283.027344 191.730469 285.925781 182.832031M292.324219 190.238281L292.214844 190.238281C291.679688 190.238281 291.542969 190.160156 291.542969 189.5L291.542969 185.40625 291.273438 185.40625 289.714844 185.574219 289.714844 185.886719C290.429688 185.886719 290.617188 185.941406 290.617188 186.535156L290.617188 189.46875C290.171875 189.859375 289.8125 190.136719 289.246094 190.136719 288.664063 190.136719 288.242188 189.800781 288.242188 188.664063L288.242188 185.40625 287.996094 185.40625 286.554688 185.574219 286.554688 185.886719C287.160156 185.898438 287.316406 185.941406 287.316406 186.542969L287.316406 188.808594C287.316406 190.328125 287.851563 190.851563 288.777344 190.851563 289.492188 190.851563 290.015625 190.515625 290.605469 189.9375L290.664063 189.9375 290.664063 190.796875 290.90625 190.796875 292.324219 190.539063 292.324219 190.238281M294.664063 185.363281L294.382813 185.363281 292.980469 185.675781 292.980469 185.996094C292.980469 185.996094 293.191406 185.976563 293.335938 185.976563 293.703125 185.976563 293.757813 186.121094 293.757813 186.542969L293.757813 192.066406C293.757813 192.691406 293.648438 192.882813 292.945313 192.882813L292.945313 193.195313 295.769531 193.195313 295.769531 192.871094C294.898438 192.871094 294.6875 192.726563 294.6875 192L294.6875 190.539063 294.730469 190.539063C295.054688 190.761719 295.433594 190.851563 295.859375 190.851563 297.195313 190.851563 298.300781 189.722656 298.300781 187.828125 298.300781 186.367188 297.53125 185.328125 296.425781 185.328125 295.769531 185.328125 295.234375 185.675781 294.695313 186.300781L294.664063 186.300781zM294.6875 186.769531C294.898438 186.488281 295.378906 186.089844 295.96875 186.089844 296.792969 186.089844 297.285156 186.734375 297.285156 188.140625 297.285156 189.691406 296.695313 190.417969 295.914063 190.417969 295.289063 190.417969 294.898438 189.914063 294.6875 189.679688L294.6875 186.769531M300.664063 185.363281L300.382813 185.363281 298.980469 185.675781 298.980469 185.996094C298.980469 185.996094 299.191406 185.976563 299.335938 185.976563 299.703125 185.976563 299.757813 186.121094 299.757813 186.542969L299.757813 192.066406C299.757813 192.691406 299.648438 192.882813 298.945313 192.882813L298.945313 193.195313 301.769531 193.195313 301.769531 192.871094C300.898438 192.871094 300.6875 192.726563 300.6875 192L300.6875 190.539063 300.730469 190.539063C301.054688 190.761719 301.433594 190.851563 301.859375 190.851563 303.195313 190.851563 304.300781 189.722656 304.300781 187.828125 304.300781 186.367188 303.53125 185.328125 302.425781 185.328125 301.769531 185.328125 301.234375 185.675781 300.695313 186.300781L300.664063 186.300781zM300.6875 186.769531C300.898438 186.488281 301.378906 186.089844 301.96875 186.089844 302.792969 186.089844 303.285156 186.734375 303.285156 188.140625 303.285156 189.691406 302.695313 190.417969 301.914063 190.417969 301.289063 190.417969 300.898438 189.914063 300.6875 189.679688L300.6875 186.769531M309.328125 189.144531C308.972656 189.613281 308.628906 190.015625 307.722656 190.015625 306.832031 190.015625 305.984375 189.3125 305.984375 187.773438L309.507813 187.773438C309.453125 186.210938 308.648438 185.328125 307.433594 185.328125 306.128906 185.328125 305.078125 186.222656 305.078125 188.085938 305.078125 189.878906 306.117188 190.851563 307.457031 190.851563 308.605469 190.851563 309.140625 190.148438 309.542969 189.300781zM305.972656 187.359375C306.0625 186.324219 306.507813 185.777344 307.265625 185.777344 308.058594 185.777344 308.425781 186.535156 308.460938 187.359375L305.972656 187.359375M311.941406 185.363281L311.671875 185.363281 310.289063 185.699219 310.289063 186.011719C310.289063 186.011719 310.414063 185.988281 310.636719 185.988281 311.039063 185.988281 311.039063 186.1875 311.039063 186.589844L311.039063 189.65625C311.039063 190.28125 310.960938 190.417969 310.222656 190.417969L310.222656 190.738281 313.011719 190.738281 313.011719 190.417969C312.175781 190.417969 311.964844 190.304688 311.964844 189.601563L311.964844 187.058594C312.230469 186.613281 312.589844 186.144531 312.84375 186.144531 312.980469 186.144531 313.203125 186.523438 313.570313 186.523438 313.816406 186.523438 314.0625 186.34375 314.0625 185.921875 314.0625 185.542969 313.851563 185.296875 313.414063 185.296875 312.878906 185.296875 312.542969 185.6875 311.976563 186.511719L311.941406 186.511719 311.941406 185.363281M277.355469 206.394531L277.355469 206.082031C276.730469 206.082031 276.621094 205.894531 276.621094 205.324219L276.621094 198.574219 276.207031 198.574219 275.90625 198.941406C275.4375 198.628906 275.058594 198.527344 274.589844 198.527344 273.171875 198.527344 272.070313 199.699219 272.070313 201.484375 272.070313 203.035156 272.804688 204.027344 273.964844 204.027344 274.691406 204.027344 275.171875 203.671875 275.660156 203.238281L275.695313 203.238281 275.695313 205.199219C275.695313 205.894531 275.558594 206.082031 274.65625 206.082031L274.65625 206.394531zM275.695313 202.792969C275.382813 203.046875 275.046875 203.214844 274.5 203.214844 273.382813 203.214844 273.027344 202.277344 273.027344 201.0625 273.027344 199.667969 273.640625 198.976563 274.578125 198.976563 275.171875 198.976563 275.546875 199.300781 275.695313 199.855469L275.695313 202.792969M283.625 203.4375L283.511719 203.4375C282.976563 203.4375 282.84375 203.359375 282.84375 202.699219L282.84375 198.605469 282.574219 198.605469 281.015625 198.773438 281.015625 199.085938C281.726563 199.085938 281.917969 199.144531 281.917969 199.734375L281.917969 202.667969C281.472656 203.058594 281.113281 203.335938 280.546875 203.335938 279.964844 203.335938 279.539063 203.003906 279.539063 201.863281L279.539063 198.605469 279.296875 198.605469 277.855469 198.773438 277.855469 199.085938C278.460938 199.097656 278.617188 199.144531 278.617188 199.746094L278.617188 202.011719C278.617188 203.527344 279.148438 204.050781 280.078125 204.050781 280.789063 204.050781 281.316406 203.714844 281.90625 203.136719L281.964844 203.136719 281.964844 203.996094 282.207031 203.996094 283.625 203.738281 283.625 203.4375M287.4375 203.246094C287.503906 203.738281 287.613281 203.996094 288.105469 203.996094 288.675781 203.996094 288.941406 203.761719 289.3125 203.226563L289.144531 203.046875C288.988281 203.214844 288.832031 203.324219 288.617188 203.324219 288.382813 203.324219 288.285156 203.238281 288.285156 202.777344L288.285156 200.246094C288.285156 199.085938 287.828125 198.527344 286.609375 198.527344 285.394531 198.527344 284.648438 199.132813 284.648438 199.753906 284.648438 200.125 284.890625 200.292969 285.117188 200.292969 285.429688 200.292969 285.605469 200.125 285.605469 199.777344 285.605469 199.109375 285.71875 198.875 286.355469 198.875 287.023438 198.875 287.359375 199.242188 287.359375 200.214844L287.359375 200.703125C286.398438 201.003906 284.421875 201.296875 284.421875 202.769531 284.421875 203.480469 284.890625 204.019531 285.753906 204.019531 286.464844 204.019531 286.867188 203.707031 287.390625 203.246094zM287.359375 202.914063C286.976563 203.226563 286.578125 203.402344 286.210938 203.402344 285.730469 203.402344 285.40625 203.058594 285.40625 202.5 285.40625 201.628906 286.34375 201.328125 287.359375 201.074219L287.359375 202.914063M291.34375 198.5625L291.074219 198.5625 289.691406 198.898438 289.691406 199.210938C289.691406 199.210938 289.8125 199.1875 290.035156 199.1875 290.4375 199.1875 290.4375 199.386719 290.4375 199.789063L290.4375 202.855469C290.4375 203.480469 290.359375 203.617188 289.621094 203.617188L289.621094 203.941406 292.414063 203.941406 292.414063 203.617188C291.578125 203.617188 291.363281 203.503906 291.363281 202.800781L291.363281 200.257813C291.632813 199.8125 291.988281 199.34375 292.246094 199.34375 292.378906 199.34375 292.601563 199.722656 292.96875 199.722656 293.214844 199.722656 293.460938 199.542969 293.460938 199.121094 293.460938 198.742188 293.25 198.496094 292.8125 198.496094 292.277344 198.496094 291.945313 198.886719 291.375 199.710938L291.34375 199.710938 291.34375 198.5625M296.867188 202.933594C296.589844 203.246094 296.445313 203.394531 296.089844 203.394531 295.652344 203.394531 295.554688 203.125 295.554688 202.332031L295.554688 199.132813 296.8125 199.132813 296.8125 198.664063 295.554688 198.664063 295.5625 197.136719 295.273438 197.136719C294.871094 198.082031 294.539063 198.550781 294.011719 198.875L294.011719 199.132813 294.628906 199.132813 294.628906 202.644531C294.628906 203.648438 294.949219 204.050781 295.695313 204.050781 296.410156 204.050781 296.644531 203.714844 297.082031 203.113281L296.867188 202.933594M298.71875 196.207031C298.328125 196.207031 298.082031 196.5 298.082031 196.832031 298.082031 197.179688 298.339844 197.46875 298.71875 197.46875 299.109375 197.46875 299.351563 197.179688 299.351563 196.832031 299.351563 196.5 299.109375 196.207031 298.71875 196.207031zM299.96875 203.628906C299.21875 203.628906 299.164063 203.460938 299.164063 202.8125L299.164063 198.5625 298.871094 198.5625 297.46875 198.875 297.46875 199.199219C297.46875 199.199219 297.589844 199.175781 297.746094 199.175781 298.070313 199.175781 298.238281 199.222656 298.238281 199.699219L298.238281 202.8125C298.238281 203.449219 298.203125 203.628906 297.457031 203.628906L297.457031 203.941406 299.96875 203.941406 299.96875 203.628906M303.199219 203.617188C302.398438 203.617188 302.34375 203.460938 302.34375 202.8125L302.34375 196.0625 302.0625 196.0625 300.589844 196.453125 300.589844 196.753906C300.589844 196.753906 300.757813 196.734375 300.945313 196.734375 301.226563 196.734375 301.414063 196.753906 301.414063 197.214844L301.414063 202.8125C301.414063 203.4375 301.371094 203.617188 300.632813 203.617188L300.632813 203.941406 303.199219 203.941406 303.199219 203.617188M308.128906 202.34375C307.773438 202.8125 307.425781 203.214844 306.523438 203.214844 305.632813 203.214844 304.78125 202.511719 304.78125 200.972656L308.308594 200.972656C308.253906 199.410156 307.449219 198.527344 306.234375 198.527344 304.929688 198.527344 303.878906 199.421875 303.878906 201.285156 303.878906 203.082031 304.917969 204.050781 306.257813 204.050781 307.40625 204.050781 307.941406 203.347656 308.34375 202.5zM304.773438 200.558594C304.859375 199.523438 305.308594 198.976563 306.066406 198.976563 306.859375 198.976563 307.226563 199.734375 307.257813 200.558594L304.773438 200.558594M290.964844 213.359375C290.964844 211.171875 289.636719 209.675781 287.417969 209.675781 285.207031 209.675781 283.859375 211.203125 283.859375 213.46875 283.859375 215.746094 285.109375 217.128906 287.136719 217.261719L287.40625 217.71875C287.996094 218.734375 288.855469 219.070313 290.707031 219.070313L291.265625 219.070313 291.265625 218.703125C289.925781 218.703125 289.214844 218.253906 288.421875 217.140625L288.421875 217.117188C289.992188 216.738281 290.964844 215.300781 290.964844 213.359375zM289.792969 213.402344C289.792969 215.644531 289.011719 216.804688 287.429688 216.804688 285.820313 216.804688 285.03125 215.5 285.03125 213.402344 285.03125 211.359375 285.945313 210.144531 287.382813 210.144531 288.820313 210.144531 289.792969 211.394531 289.792969 213.402344M292.558594 211.582031C292.9375 210.992188 293.351563 210.679688 294.019531 210.679688 294.714844 210.679688 295.160156 211.058594 295.160156 211.71875 295.160156 212.621094 294.367188 213.234375 293.609375 213.234375L293.398438 213.234375 293.398438 213.660156 293.617188 213.660156C294.691406 213.660156 295.640625 214.316406 295.640625 215.308594 295.640625 216.402344 294.957031 216.726563 294.253906 216.726563 293.988281 216.726563 293.832031 216.683594 293.351563 216.4375 292.960938 216.238281 292.871094 216.179688 292.695313 216.179688 292.402344 216.179688 292.257813 216.4375 292.257813 216.671875 292.257813 216.960938 292.503906 217.285156 293.507813 217.285156 295.136719 217.285156 296.554688 216.503906 296.554688 214.976563 296.554688 213.980469 295.804688 213.390625 294.914063 213.113281L294.914063 213.078125C295.617188 212.632813 296.117188 212.21875 296.117188 211.449219 296.117188 210.601563 295.460938 209.957031 294.320313 209.957031 293.40625 209.957031 292.714844 210.46875 292.304688 211.4375L292.558594 211.582031" />
</svg>